<?xml version="1.0" encoding="utf-8"?>
<!-- Generator: Adobe Illustrator 27.0.0, SVG Export Plug-In . SVG Version: 6.00 Build 0)  -->
<svg version="1.1" id="Layer_1" xmlns="http://www.w3.org/2000/svg" xmlns:xlink="http://www.w3.org/1999/xlink" x="0px" y="0px"
	 viewBox="0 0 1519.5 333.1" style="enable-background:new 0 0 1519.5 333.1;" xml:space="preserve">
<style type="text/css">
	.st0{fill:#FFF8FC;}
	.st1{fill:#F4C446;}
</style>
<g>
	<path class="st0" d="M602.3,105.9c-54.2,0-94.7,40.9-94.7,90.9v0.8c0,50.1,40,90.1,94.3,90.1c54.2,0,94.7-40.9,94.7-90.9V196
		C696.6,145.9,656.5,105.9,602.3,105.9z M647.4,197.2c0,25.9-17.1,47.5-45.5,47.5c-27.5,0-45.9-22.5-45.9-48.4v-0.8
		c0-25.9,17.1-47.5,45.5-47.5c27.5,0,45.9,22.5,45.9,48.4V197.2z"/>
	<path class="st0" d="M850.1,131.7c-11.7-14.2-27.9-25.9-54.2-25.9c-41.3,0-79.7,32.1-79.7,90.1v0.8c0,58.4,38.8,90.1,79.7,90.1
		c25.9,0,42.5-12.1,54.2-28.4V274c0,5.4,4.6,10,10,10h30c5.4,0,10-4.6,10-10V55.8c0-5.4-4.6-10-10-10h-30c-5.4,0-10,4.6-10,10V131.7
		z M850.9,196.8c0,29.2-19.2,48.4-42.5,48.4c-23.4,0-42.5-19.2-42.5-48.4V196c0-29.2,19.6-48.4,42.5-48.4
		c22.9,0,42.5,19.2,42.5,48.4V196.8z"/>
	<path class="st1" d="M951,283.5h30.4c5.4,0,10-4.6,10-10v-78.4h98.8c5.4,0,10-4.6,10-10v-25.9c0-5.4-4.6-10-10-10h-98.8v-48h113.4
		c5.4,0,10-4.6,10-10V65.4c0-5.4-4.6-10-10-10H951c-5.4,0-10,4.6-10,10V274C941,279.4,945.6,283.5,951,283.5z"/>
	<path class="st1" d="M1205.4,107.1c-25.4,0-42.5,4.2-59.2,10.4c-5,2.1-7.5,7.1-5.8,12.1l6.3,19.6c1.7,5,7.1,7.9,12.5,6.3
		c12.1-3.8,23.8-6.3,38.8-6.3c24.6,0,37.5,11.3,37.5,32.1v2.9c-12.5-4.2-25-7.1-42.5-7.1c-41.3,0-70.5,17.5-70.5,55.9v0.8
		c0,34.6,27.1,53.4,60.1,53.4c24.2,0,40.9-8.8,53-22.1v9.2c0,5.4,4.6,10,10,10h28.4c5.4,0,10-4.6,10-10v-92.2
		C1283.4,135.1,1259.6,107.1,1205.4,107.1z M1236.3,221.8c0,17.9-15.8,30.4-38.8,30.4c-15.8,0-27.1-7.9-27.1-21.3v-0.8
		c0-15.4,12.9-24.2,34.2-24.2c12.1,0,22.9,2.5,31.7,6.7L1236.3,221.8L1236.3,221.8z"/>
	<path class="st1" d="M1330.1,283.5h30c5.4,0,10-4.6,10-10V118.8c0-5.4-4.6-10-10-10h-30c-5.4,0-10,4.6-10,10V274
		C1320.1,279.4,1324.7,283.5,1330.1,283.5z"/>
	<path class="st1" d="M1328.5,89.6h32.5c5.4,0,10-4.6,10-10V55.4c0-5.4-4.6-10-10-10h-32.5c-5.4,0-10,4.6-10,10v24.2
		C1318.9,85.4,1323,89.6,1328.5,89.6z"/>
	<path class="st1" d="M1457.7,144.2v-25.4c0-5.4-4.6-10-10-10h-30c-5.4,0-10,4.6-10,10V274c0,5.4,4.6,10,10,10h30
		c5.4,0,10-4.6,10-10v-55.1c0-37.5,16.3-57.1,43.4-60.9c5.4-0.8,10-5.4,10.4-10.8l2.1-31.3c0-5.8-5-10.4-10.8-9.6
		C1479.9,108.8,1466.5,123.4,1457.7,144.2z"/>
	<path class="st0" d="M226.9,284h32.5c5.4,0,10-4.6,10-10v-53.4c-16.7,6.7-33.8,11.7-52.1,14.6V274C216.9,279.4,221.5,284,226.9,284
		z"/>
	<path class="st0" d="M82.2,284h32.5c5.4,0,10-4.6,10-10v-38.8c-17.9-3.3-35.5-7.9-52.1-14.6V274C72.6,279.4,76.8,284,82.2,284z"/>
	<path class="st0" d="M455.5,127.1c-25.9-21.3-61.3-30.9-94.7-27.9c-17.1,1.7-33.4,7.5-48.4,15.4c-5,2.5-43.4,20.9-43.4,24.2V65.4
		c0-5.4-4.6-10-10-10h-32.5c-5.4,0-10,4.6-10,10v92.2c-15,3.3-30.4,5-46.3,5s-31.3-1.7-46.3-5V65.4c0-5.4-4.6-10-10-10H81.4
		c-5.4,0-10,4.6-10,10v73.4c-9.2-4.6-17.9-10-26.7-16.3c-3.8-2.9-9.2-2.1-12.5,1.3L8.8,147.2c-4.2,4.2-3.8,11.3,0.8,14.6
		c2.5,1.7,5,3.3,7.5,5.4c16.7,11.7,35,21.3,54.2,28.8c16.7,6.7,33.8,11.7,52.1,14.6c15,2.5,30.4,4.2,46.3,4.2s31.3-1.3,46.3-4.2
		c17.9-3.3,35.5-7.9,52.1-14.6c10.8-4.2,21.7-9.6,31.7-15c-0.8,5-1.3,10-1.3,15.4v0.8c0,50.1,40,90.1,94.3,90.1s94.7-40.9,94.7-90.9
		v-0.8c0-10.4-1.7-20-5-29.6C478,150.5,468,137.6,455.5,127.1z M439.2,197.2c0,25.9-17.1,47.5-45.5,47.5
		c-27.5,0-45.9-22.5-45.9-48.4v-0.8c0-25.9,17.1-47.5,45.5-47.5c27.5,0,45.9,22.5,45.9,48.4V197.2z"/>
</g>
</svg>
