<?xml version="1.0" encoding="utf-8"?>
<!-- Generator: Adobe Illustrator 27.0.0, SVG Export Plug-In . SVG Version: 6.00 Build 0)  -->
<svg version="1.1" id="Layer_1" xmlns="http://www.w3.org/2000/svg" xmlns:xlink="http://www.w3.org/1999/xlink" x="0px" y="0px"
	 viewBox="0 0 372.7 81.7" style="enable-background:new 0 0 372.7 81.7;" xml:space="preserve">
<style type="text/css">
	.st0{fill:#FFF8FC;}
	.st1{fill:#FEBB3B;}
</style>
<g>
	<path class="st0" d="M148.5,26.3c-13,0-22.7,9.8-22.7,21.8v0.2c0,12,9.6,21.6,22.6,21.6c13,0,22.7-9.8,22.7-21.8v-0.2
		C171.1,35.9,161.5,26.3,148.5,26.3z M159.3,48.2c0,6.2-4.1,11.4-10.9,11.4c-6.6,0-11-5.4-11-11.6v-0.2c0-6.2,4.1-11.4,10.9-11.4
		c6.6,0,11,5.4,11,11.6V48.2z"/>
	<path class="st0" d="M207.9,32.5c-2.8-3.4-6.7-6.2-13-6.2c-9.9,0-19.1,7.7-19.1,21.6v0.2c0,14,9.3,21.6,19.1,21.6
		c6.2,0,10.2-2.9,13-6.8v3.7c0,1.3,1.1,2.4,2.4,2.4h7.2c1.3,0,2.4-1.1,2.4-2.4V14.3c0-1.3-1.1-2.4-2.4-2.4h-7.2
		c-1.3,0-2.4,1.1-2.4,2.4V32.5z M208.1,48.1c0,7-4.6,11.6-10.2,11.6s-10.2-4.6-10.2-11.6v-0.2c0-7,4.7-11.6,10.2-11.6
		s10.2,4.6,10.2,11.6V48.1z"/>
	<path class="st1" d="M232.1,68.9h7.3c1.3,0,2.4-1.1,2.4-2.4V47.7h23.7c1.3,0,2.4-1.1,2.4-2.4v-6.2c0-1.3-1.1-2.4-2.4-2.4h-23.7
		V25.2H269c1.3,0,2.4-1.1,2.4-2.4v-6.2c0-1.3-1.1-2.4-2.4-2.4h-36.9c-1.3,0-2.4,1.1-2.4,2.4v50C229.7,67.9,230.8,68.9,232.1,68.9z"
		/>
	<path class="st1" d="M293.1,26.6c-6.1,0-10.2,1-14.2,2.5c-1.2,0.5-1.8,1.7-1.4,2.9l1.5,4.7c0.4,1.2,1.7,1.9,3,1.5
		c2.9-0.9,5.7-1.5,9.3-1.5c5.9,0,9,2.7,9,7.7v0.7c-3-1-6-1.7-10.2-1.7c-9.9,0-16.9,4.2-16.9,13.4v0.2c0,8.3,6.5,12.8,14.4,12.8
		c5.8,0,9.8-2.1,12.7-5.3v2.2c0,1.3,1.1,2.4,2.4,2.4h6.8c1.3,0,2.4-1.1,2.4-2.4V44.6C311.8,33.3,306.1,26.6,293.1,26.6z M300.5,54.1
		c0,4.3-3.8,7.3-9.3,7.3c-3.8,0-6.5-1.9-6.5-5.1v-0.2c0-3.7,3.1-5.8,8.2-5.8c2.9,0,5.5,0.6,7.6,1.6V54.1z"/>
	<path class="st1" d="M323,68.9h7.2c1.3,0,2.4-1.1,2.4-2.4V29.4c0-1.3-1.1-2.4-2.4-2.4H323c-1.3,0-2.4,1.1-2.4,2.4v37.2
		C320.6,67.9,321.7,68.9,323,68.9z"/>
	<path class="st1" d="M322.6,22.4h7.8c1.3,0,2.4-1.1,2.4-2.4v-5.8c0-1.3-1.1-2.4-2.4-2.4h-7.8c-1.3,0-2.4,1.1-2.4,2.4v5.8
		C320.3,21.4,321.3,22.4,322.6,22.4z"/>
	<path class="st1" d="M353.6,35.5v-6.1c0-1.3-1.1-2.4-2.4-2.4H344c-1.3,0-2.4,1.1-2.4,2.4v37.2c0,1.3,1.1,2.4,2.4,2.4h7.2
		c1.3,0,2.4-1.1,2.4-2.4V53.4c0-9,3.9-13.7,10.4-14.6c1.3-0.2,2.4-1.3,2.5-2.6l0.5-7.5c0-1.4-1.2-2.5-2.6-2.3
		C358.9,27,355.7,30.5,353.6,35.5z"/>
	<path class="st0" d="M58.5,69h7.8c1.3,0,2.4-1.1,2.4-2.4V53.8c-4,1.6-8.1,2.8-12.5,3.5v9.3C56.1,67.9,57.2,69,58.5,69z"/>
	<path class="st0" d="M23.8,69h7.8c1.3,0,2.4-1.1,2.4-2.4v-9.3c-4.3-0.8-8.5-1.9-12.5-3.5v12.8C21.5,67.9,22.5,69,23.8,69z"/>
	<path class="st0" d="M113.3,31.4c-6.2-5.1-14.7-7.4-22.7-6.7c-4.1,0.4-8,1.8-11.6,3.7c-1.2,0.6-10.4,5-10.4,5.8V16.6
		c0-1.3-1.1-2.4-2.4-2.4h-7.8c-1.3,0-2.4,1.1-2.4,2.4v22.1c-3.6,0.8-7.3,1.2-11.1,1.2s-7.5-0.4-11.1-1.2V16.6c0-1.3-1.1-2.4-2.4-2.4
		h-7.8c-1.3,0-2.4,1.1-2.4,2.4v17.6c-2.2-1.1-4.3-2.4-6.4-3.9c-0.9-0.7-2.2-0.5-3,0.3l-5.6,5.6c-1,1-0.9,2.7,0.2,3.5
		c0.6,0.4,1.2,0.8,1.8,1.3c4,2.8,8.4,5.1,13,6.9c4,1.6,8.1,2.8,12.5,3.5c3.6,0.6,7.3,1,11.1,1c3.8,0,7.5-0.3,11.1-1
		c4.3-0.8,8.5-1.9,12.5-3.5c2.6-1,5.2-2.3,7.6-3.6c-0.2,1.2-0.3,2.4-0.3,3.7v0.2c0,12,9.6,21.6,22.6,21.6c13,0,22.7-9.8,22.7-21.8
		v-0.2c0-2.5-0.4-4.8-1.2-7.1C118.7,37,116.3,33.9,113.3,31.4z M109.4,48.2c0,6.2-4.1,11.4-10.9,11.4c-6.6,0-11-5.4-11-11.6v-0.2
		c0-6.2,4.1-11.4,10.9-11.4c6.6,0,11,5.4,11,11.6V48.2z"/>
</g>
</svg>
